<svg xmlns="http://www.w3.org/2000/svg" viewBox="0 0 212.6 170.08"><defs><style>.a{fill:#78b0da;}</style></defs><path class="a" d="M196.43,170.08H16.17C1.31,169.91-.89,158.35.26,148.82c0-7,7.12-12.76,15.91-12.76H196.43c14.86.17,17.06,11.73,15.91,21.26C212.34,164.37,205.22,170.08,196.43,170.08Z"/><path class="a" d="M196.43,102.05H16.17C1.31,101.88-.89,90.32.26,80.79.26,73.74,7.38,68,16.17,68H196.43c14.86.17,17.06,11.73,15.91,21.26C212.34,96.34,205.22,102.05,196.43,102.05Z"/><path class="a" d="M196.43,34H16.17C1.31,33.85-.89,22.29.26,12.76.26,5.71,7.38,0,16.17,0H196.43c14.86.17,17.06,11.73,15.91,21.26C212.34,28.3,205.22,34,196.43,34Z"/></svg>