<?xml version="1.0" encoding="UTF-8" ?>
<!DOCTYPE svg PUBLIC "-//W3C//DTD SVG 1.1//EN" "http://www.w3.org/Graphics/SVG/1.1/DTD/svg11.dtd">
<svg width="948pt" height="948pt" viewBox="0 0 948 948" version="1.1" xmlns="http://www.w3.org/2000/svg">
<g id="#ffffffff">
<path fill="#ffffff" opacity="1.00" d=" M 470.16 0.00 L 477.82 0.00 C 512.67 0.28 547.42 4.57 581.43 12.10 C 581.25 69.97 581.42 127.85 581.34 185.72 C 617.76 200.48 651.41 222.09 679.78 249.30 C 707.91 276.16 730.93 308.38 747.17 343.73 C 766.49 385.60 776.09 431.87 775.24 477.96 C 774.58 521.46 764.59 564.82 746.00 604.16 C 717.30 665.44 667.83 716.71 607.61 747.58 C 599.10 752.03 590.32 755.92 581.47 759.62 C 581.18 730.83 581.42 702.04 581.35 673.25 C 566.85 680.81 551.91 687.66 536.21 692.33 C 491.03 706.41 441.60 706.39 396.40 692.42 C 381.03 687.86 366.41 681.19 352.17 673.91 C 352.24 702.63 352.21 731.36 352.19 760.08 C 315.79 745.62 282.19 724.16 253.78 697.21 C 222.58 667.73 197.58 631.69 181.02 592.09 C 150.57 520.04 149.15 436.30 177.06 363.24 C 191.69 324.51 214.29 288.83 242.94 258.96 C 270.35 230.28 303.33 206.97 339.50 190.68 C 343.70 188.66 348.14 187.21 352.28 185.06 C 352.09 128.62 352.26 72.18 352.19 15.74 C 390.68 5.71 430.38 0.37 470.16 0.00 M 515.19 65.29 C 506.52 67.34 499.67 75.23 498.87 84.10 C 497.89 92.25 502.04 100.71 509.06 104.94 C 515.68 109.12 524.59 109.29 531.35 105.32 C 537.27 101.99 541.43 95.75 542.16 88.99 C 543.06 81.98 540.25 74.65 534.91 70.04 C 529.65 65.32 522.01 63.53 515.19 65.29 M 393.21 99.28 C 386.22 101.42 381.32 108.69 381.93 115.98 C 382.36 124.56 390.40 131.73 398.98 131.20 C 408.57 131.03 416.42 121.20 414.33 111.82 C 412.86 102.43 402.18 96.04 393.21 99.28 M 492.40 125.48 C 485.73 128.27 480.03 132.90 474.85 137.86 C 466.40 146.45 458.83 157.26 458.33 169.70 C 470.28 165.53 480.56 157.42 492.87 154.15 C 496.53 153.19 501.29 152.84 503.88 156.20 C 506.43 159.83 506.63 164.67 506.04 168.93 C 503.43 176.01 498.85 182.15 494.19 188.01 C 481.13 204.79 465.29 219.30 452.78 236.49 C 478.00 226.14 501.54 211.77 522.83 194.77 C 534.71 185.06 546.04 174.47 555.14 162.06 C 559.06 156.52 562.70 150.56 564.22 143.88 C 564.78 138.60 566.07 132.82 563.18 127.96 C 558.75 120.19 549.54 116.82 541.11 115.69 C 524.32 113.66 507.53 118.51 492.40 125.48 M 371.02 146.02 C 366.12 152.68 366.56 161.86 369.86 169.12 C 374.91 180.68 385.02 188.99 395.41 195.64 C 413.64 207.55 433.24 218.25 454.75 222.72 C 439.86 209.39 424.93 195.26 415.44 177.43 C 412.70 173.35 415.80 167.52 420.39 166.52 C 429.09 164.40 437.87 167.50 446.37 169.24 C 446.01 157.63 436.29 149.18 426.73 144.17 C 416.17 139.51 404.75 136.13 393.11 136.34 C 384.94 136.53 376.03 139.11 371.02 146.02 M 353.93 269.01 C 309.74 294.10 274.46 334.52 255.69 381.75 C 236.70 428.88 234.32 482.51 249.08 531.12 C 249.26 531.96 249.41 532.83 249.50 533.70 C 249.75 532.14 251.29 530.75 252.95 531.49 C 256.03 532.12 259.09 530.98 261.93 529.90 C 267.03 527.67 272.44 525.27 275.73 520.54 C 283.25 511.37 285.89 499.48 288.58 488.22 C 291.85 472.86 294.96 457.46 298.58 442.19 C 301.03 432.89 303.37 423.12 309.29 415.33 C 311.99 411.51 317.95 410.07 321.53 413.53 C 325.93 418.09 326.35 424.89 326.91 430.87 C 327.73 451.38 324.62 471.76 322.34 492.09 C 319.28 518.62 315.48 545.17 315.62 571.94 C 315.83 579.29 316.08 586.77 318.06 593.91 C 318.57 595.23 319.07 597.45 320.97 597.18 C 322.63 596.02 323.47 594.11 324.43 592.42 C 327.91 585.06 331.97 577.98 336.13 571.00 C 338.99 566.89 343.69 561.75 349.22 563.67 C 353.05 566.66 354.81 571.77 359.00 574.38 C 362.17 574.77 365.39 573.93 368.54 574.56 C 371.72 575.35 374.51 578.61 377.99 577.11 C 379.81 556.07 382.60 535.11 383.59 514.00 C 383.95 510.51 383.65 506.91 384.64 503.52 C 385.26 501.07 389.10 500.49 390.28 502.76 C 391.67 505.61 391.33 508.91 391.53 511.99 C 392.60 540.02 391.95 568.09 393.33 596.11 C 396.67 591.24 396.45 584.78 399.93 579.99 C 402.87 576.55 407.91 577.03 411.99 577.11 C 417.06 577.31 422.80 579.64 427.32 576.26 C 434.97 571.23 437.19 561.70 443.14 555.21 C 447.89 549.74 457.02 548.54 462.69 553.21 C 468.48 557.95 471.45 565.11 476.58 570.43 C 479.78 573.78 484.66 574.09 489.01 573.96 C 496.30 573.68 503.73 574.25 510.90 572.72 C 514.78 570.52 516.28 565.11 520.90 563.95 C 524.13 563.61 526.76 566.10 528.60 568.46 C 530.08 570.34 530.40 573.53 533.07 574.20 C 537.78 574.70 542.90 573.87 547.13 576.55 C 549.00 577.15 551.80 579.89 553.39 577.55 C 554.82 556.06 555.95 534.54 557.52 513.06 C 557.84 509.80 557.63 506.31 559.16 503.32 C 560.19 500.79 564.45 501.36 564.89 504.03 C 566.23 508.57 565.67 513.37 565.70 518.04 C 566.55 538.36 566.42 558.73 567.24 579.06 C 567.58 585.07 567.25 591.13 568.17 597.10 C 573.51 591.91 571.38 582.24 578.14 578.09 C 586.35 573.89 596.25 579.88 604.35 575.33 C 612.75 570.25 612.47 557.80 621.52 553.50 C 626.47 551.01 633.29 548.79 637.90 553.12 C 643.23 558.79 647.78 565.16 652.86 571.07 C 653.69 571.91 654.50 573.19 655.90 572.96 C 659.25 573.07 662.62 573.03 665.98 573.23 C 675.06 556.17 682.10 538.00 686.58 519.20 C 697.32 474.72 694.30 426.96 677.70 384.30 C 664.28 349.37 641.92 317.94 613.47 293.65 C 582.89 267.40 545.18 249.51 505.45 242.68 C 453.93 233.53 399.29 242.85 353.93 269.01 M 307.56 445.01 C 305.19 454.64 304.25 464.57 301.72 474.17 C 297.49 492.09 292.09 510.67 279.90 524.95 C 273.18 533.03 262.78 537.38 252.38 537.60 C 251.40 537.05 250.74 536.15 250.07 535.29 C 249.98 537.38 251.61 538.85 252.17 540.75 C 268.61 588.29 301.59 629.84 343.99 656.88 C 381.78 681.30 427.05 693.86 472.02 692.55 C 516.59 691.60 560.73 676.93 597.03 651.06 C 624.96 631.39 648.22 605.25 664.79 575.40 C 663.81 576.59 662.52 577.07 661.00 576.76 C 657.78 576.36 653.72 577.54 651.36 574.68 C 646.65 569.03 642.10 563.24 637.29 557.68 C 635.70 555.86 633.63 553.87 630.99 554.25 C 625.84 554.82 620.36 557.14 617.85 561.95 C 614.65 567.73 612.26 574.54 606.44 578.28 C 600.98 581.94 594.14 580.37 588.03 580.10 C 584.58 579.78 580.14 579.64 578.12 583.05 C 575.92 586.90 575.76 591.57 573.55 595.45 C 572.23 597.99 570.31 601.46 566.96 601.11 C 564.50 600.27 564.50 597.17 564.28 595.05 C 563.91 583.05 563.43 571.05 563.24 559.05 C 562.20 541.69 563.18 524.22 561.54 506.90 C 559.78 529.70 558.67 552.54 557.18 575.35 C 556.98 577.96 556.14 581.22 553.19 581.88 C 549.04 582.72 545.83 579.32 542.07 578.31 C 538.74 577.65 535.31 578.23 531.99 577.63 C 526.44 576.69 526.85 567.71 521.06 567.57 C 517.02 570.57 514.91 576.80 509.09 576.83 C 500.43 577.03 491.73 577.97 483.08 577.21 C 477.03 576.92 472.75 572.10 469.57 567.45 C 466.67 563.40 464.20 558.86 460.19 555.77 C 455.83 552.50 449.23 553.64 445.71 557.63 C 441.53 562.41 439.40 568.59 435.30 573.44 C 432.43 577.10 428.76 580.70 423.93 581.32 C 416.96 582.16 409.68 578.95 402.94 581.85 C 398.92 587.70 399.62 596.08 393.94 601.01 C 392.88 602.64 390.09 601.99 389.99 599.99 C 387.83 568.75 389.37 537.34 387.48 506.07 C 387.14 512.02 387.16 518.00 386.38 523.93 C 385.77 540.33 383.32 556.59 382.05 572.95 C 381.64 575.65 381.72 579.43 378.72 580.68 C 375.48 582.01 372.19 580.08 369.29 578.79 C 365.41 576.71 360.79 579.05 356.86 577.26 C 352.44 574.84 350.96 569.53 347.09 566.51 C 342.64 567.87 339.57 571.62 337.50 575.60 C 332.35 585.87 329.83 597.53 322.84 606.84 C 320.81 610.06 315.36 611.32 313.17 607.62 C 310.17 602.63 309.35 596.70 308.41 591.06 C 304.07 558.58 304.62 525.70 304.97 493.01 C 305.59 477.01 305.51 460.91 307.56 445.01 Z" />
<path fill="#ffffff" opacity="1.00" d=" M 93.96 342.95 C 95.06 341.87 95.92 340.31 97.55 340.00 C 99.98 351.94 101.88 364.70 97.70 376.48 C 95.11 384.16 89.67 390.42 83.66 395.67 C 73.20 407.28 66.65 421.97 62.96 437.04 C 57.59 460.00 58.48 484.17 64.01 507.01 C 72.21 541.57 91.50 573.18 117.94 596.81 C 110.58 575.80 102.84 554.82 98.11 533.01 C 95.08 519.24 92.76 505.04 94.23 490.91 C 95.17 482.58 98.01 473.92 104.52 468.26 C 112.69 514.04 127.85 558.71 150.73 599.26 C 156.83 611.69 161.84 624.65 166.12 637.81 C 173.14 660.01 177.27 683.61 174.23 706.89 C 172.29 723.67 166.01 739.53 158.66 754.61 C 157.41 753.24 157.00 751.37 156.27 749.73 C 142.29 714.81 125.38 681.09 106.29 648.68 C 96.38 631.82 85.53 615.52 75.29 598.85 C 65.59 582.33 56.31 565.52 48.87 547.84 C 37.84 521.97 29.85 494.35 29.33 466.06 C 28.69 439.04 36.04 411.72 51.06 389.17 C 65.29 373.71 79.69 358.39 93.96 342.95 Z" />
<path fill="#ffffff" opacity="1.00" d=" M 850.46 339.97 C 851.34 340.21 852.07 340.70 852.65 341.43 C 865.60 355.46 878.64 369.40 891.62 383.39 C 894.31 386.37 897.40 389.08 899.23 392.73 C 910.35 410.85 916.89 431.70 918.34 452.91 C 920.50 484.14 912.60 515.17 900.80 543.87 C 889.90 570.52 875.23 595.42 859.71 619.60 C 834.24 658.96 811.98 700.46 794.13 743.83 C 792.42 747.29 791.69 751.31 789.33 754.39 C 783.11 741.89 777.73 728.83 775.10 715.06 C 771.40 696.74 772.35 677.74 776.16 659.52 C 780.00 641.08 786.43 623.28 794.04 606.09 C 796.18 600.75 799.20 595.85 801.85 590.78 C 822.34 552.55 835.76 510.80 843.56 468.20 C 851.48 475.46 853.94 486.63 854.21 496.96 C 854.51 514.27 850.66 531.32 846.16 547.93 C 841.74 564.52 835.62 580.59 830.07 596.81 C 854.01 575.33 872.20 547.41 881.41 516.54 C 888.35 493.60 890.65 469.07 886.71 445.36 C 883.58 427.09 876.54 408.91 863.81 395.15 C 856.72 389.15 850.95 381.24 849.00 372.03 C 846.59 361.42 848.33 350.46 850.46 339.97 Z" />
<path fill="#ffffff" opacity="1.00" d=" M 118.54 345.00 C 123.91 357.27 126.87 371.13 124.34 384.47 C 122.58 393.35 118.69 401.88 112.91 408.87 C 97.12 426.83 85.25 448.48 80.08 471.91 C 76.80 486.04 76.14 500.63 76.76 515.08 C 69.96 497.33 64.89 478.26 66.92 459.09 C 69.17 436.20 79.64 415.11 91.91 396.02 C 98.82 387.03 105.98 378.09 111.04 367.89 C 114.64 360.67 116.99 352.90 118.54 345.00 Z" />
<path fill="#ffffff" opacity="1.00" d=" M 823.37 365.86 C 824.58 358.73 826.33 351.59 829.47 345.06 C 831.13 353.49 833.72 361.81 837.75 369.43 C 842.65 378.79 849.19 387.13 855.66 395.43 C 865.08 409.84 873.24 425.29 877.87 441.95 C 882.80 459.14 882.61 477.65 877.79 494.85 C 875.82 501.64 874.04 508.54 871.25 515.04 C 872.11 496.84 870.56 478.38 864.96 460.97 C 859.22 442.61 849.34 425.70 836.96 411.04 C 825.93 399.05 820.74 381.95 823.37 365.86 Z" />
<path fill="#ffffff" opacity="1.00" d=" M 312.40 354.51 C 322.77 351.48 334.66 357.73 338.08 367.96 C 340.87 375.49 338.93 384.49 333.26 390.17 C 327.44 396.29 317.84 398.32 310.04 395.11 C 302.27 392.16 296.73 384.31 296.53 376.01 C 295.99 366.28 302.96 356.87 312.40 354.51 Z" />
<path fill="#ffffff" opacity="1.00" d=" M 382.83 366.77 C 396.40 355.50 415.02 352.18 432.17 354.40 C 444.53 355.90 456.46 361.61 464.83 370.91 C 470.25 377.25 473.61 385.02 476.02 392.93 C 467.07 395.07 458.14 397.31 449.16 399.30 C 447.50 391.49 442.66 384.31 435.59 380.45 C 422.81 373.60 405.19 376.63 396.22 388.29 C 389.24 397.25 387.87 409.10 387.56 420.08 C 387.58 432.73 388.18 446.51 395.76 457.20 C 404.77 469.90 424.43 473.15 436.96 463.88 C 444.50 458.56 447.94 449.43 450.13 440.81 C 458.89 443.45 467.57 446.33 476.31 449.03 C 472.83 462.32 465.83 475.38 454.16 483.17 C 440.72 492.17 423.52 493.79 407.89 491.11 C 390.31 488.03 374.86 475.91 367.09 459.94 C 359.53 444.50 358.59 426.69 360.55 409.87 C 362.50 393.49 369.69 377.20 382.83 366.77 Z" />
<path fill="#ffffff" opacity="1.00" d=" M 500.15 356.05 C 509.18 355.94 518.21 356.03 527.23 356.00 C 527.38 384.68 526.97 413.36 527.49 442.04 C 527.52 448.68 528.49 455.82 533.12 460.95 C 538.41 467.28 547.05 469.36 554.98 469.15 C 562.12 469.15 569.97 467.44 574.68 461.63 C 579.67 456.00 579.42 448.01 579.77 440.97 C 580.25 412.65 579.87 384.32 580.00 356.00 C 589.01 356.00 598.02 356.00 607.03 356.00 C 606.97 383.00 607.19 410.00 606.90 437.00 C 606.34 449.80 606.51 463.79 598.76 474.70 C 590.70 486.10 576.46 491.34 562.93 492.01 C 550.60 492.53 537.71 492.54 526.10 487.82 C 515.10 483.20 505.97 473.70 503.02 462.01 C 500.47 450.87 500.36 439.36 500.21 427.99 C 500.15 404.01 500.25 380.03 500.15 356.05 Z" />
<path fill="#ffffff" opacity="1.00" d=" M 379.35 724.04 C 384.79 713.50 398.85 710.53 409.27 714.78 C 413.52 716.58 417.33 720.25 418.04 724.98 C 418.87 729.07 417.10 733.30 414.12 736.10 C 407.86 741.95 399.86 745.81 394.16 752.28 C 402.33 752.30 410.50 752.27 418.68 752.29 C 418.66 755.12 418.67 757.96 418.71 760.80 C 405.74 760.94 392.78 760.80 379.81 760.87 C 379.89 756.81 381.14 752.78 383.59 749.53 C 389.11 742.00 398.08 738.14 404.12 731.14 C 406.99 727.81 405.62 721.60 400.95 720.90 C 395.29 719.17 390.46 723.97 388.86 728.97 C 385.65 727.39 382.51 725.68 379.35 724.04 Z" />
<path fill="#ffffff" opacity="1.00" d=" M 443.41 713.55 C 449.86 712.10 457.52 712.71 462.48 717.54 C 467.28 722.33 468.48 729.47 468.65 735.99 C 468.75 742.80 468.08 750.19 463.82 755.81 C 459.94 760.95 453.01 762.53 446.89 761.90 C 440.89 761.62 435.14 758.02 432.70 752.47 C 429.36 744.79 429.37 736.01 430.86 727.91 C 432.02 721.32 436.60 714.98 443.41 713.55 M 446.38 721.34 C 443.62 722.79 442.98 726.21 442.76 729.04 C 442.34 735.36 442.22 741.75 443.04 748.04 C 443.38 751.10 445.62 754.33 449.03 754.17 C 452.10 754.52 454.71 752.06 455.22 749.15 C 456.24 744.19 455.97 739.08 455.98 734.05 C 455.77 730.53 456.02 726.79 454.38 723.55 C 452.97 720.69 449.07 720.01 446.38 721.34 Z" />
<path fill="#ffffff" opacity="1.00" d=" M 533.30 718.27 C 537.90 713.71 544.78 712.49 551.03 712.94 C 556.41 713.24 561.92 715.44 565.22 719.86 C 568.80 724.55 569.15 730.85 568.25 736.48 C 566.67 745.93 561.31 754.23 555.13 761.36 C 550.08 761.50 545.03 761.36 539.98 761.46 C 541.01 759.68 542.87 758.66 544.28 757.23 C 548.91 752.62 552.92 747.32 555.82 741.45 C 549.14 743.91 540.95 744.52 534.94 740.10 C 528.05 735.28 527.21 724.05 533.30 718.27 M 546.47 720.55 C 538.45 722.68 540.27 737.19 549.00 736.31 C 556.16 736.59 558.54 726.45 553.87 722.08 C 551.93 720.24 548.97 719.92 546.47 720.55 Z" />
<path fill="#ffffff" opacity="1.00" d=" M 482.21 714.12 C 490.38 714.00 498.55 713.93 506.71 714.15 C 506.55 727.15 506.67 740.15 506.65 753.15 C 510.42 753.16 514.19 753.17 517.97 753.13 C 518.01 755.71 518.01 758.30 517.96 760.89 C 506.35 760.81 494.74 760.87 483.13 760.86 C 483.11 758.29 483.11 755.72 483.12 753.16 C 486.89 753.15 490.67 753.16 494.45 753.16 C 494.50 742.68 494.49 732.20 494.46 721.72 C 490.40 721.71 486.34 721.71 482.28 721.72 C 482.28 719.18 482.27 716.64 482.21 714.12 Z" />
<path fill="#ffffff" opacity="1.00" d=" M 695.56 814.37 C 725.33 804.08 754.33 791.50 781.93 776.31 C 773.40 787.34 764.86 798.39 756.51 809.58 C 742.41 828.22 726.56 846.38 705.84 857.83 C 681.64 871.34 653.34 875.11 625.99 874.81 C 601.48 874.51 577.10 871.35 553.01 866.99 C 549.02 866.01 544.95 866.90 540.93 867.11 C 530.21 867.81 519.53 868.93 508.85 870.11 C 505.54 870.43 502.70 872.33 499.77 873.73 C 490.62 878.21 481.14 881.96 471.53 885.33 C 469.39 886.09 467.06 886.52 465.26 887.98 C 478.14 892.81 492.09 894.11 505.74 894.66 C 493.65 896.55 481.33 897.40 469.08 897.46 C 461.78 897.21 454.02 897.13 447.45 893.55 C 442.81 891.13 440.97 885.16 442.46 880.33 C 443.79 876.67 447.08 874.16 450.32 872.23 C 457.03 868.44 464.53 866.36 471.93 864.40 C 481.56 862.15 491.22 860.04 500.97 858.39 C 502.82 857.98 505.03 858.02 506.22 856.28 C 514.68 846.74 522.15 835.86 525.64 823.46 C 527.71 816.45 526.48 808.12 521.08 802.90 C 516.11 798.02 508.81 796.54 502.06 796.90 C 497.34 796.93 492.79 798.31 488.11 798.70 C 500.52 795.05 512.92 790.59 525.97 789.98 C 532.03 789.78 538.31 790.41 543.82 793.14 C 550.51 796.41 555.35 802.83 557.55 809.86 C 554.31 826.65 544.60 841.62 531.95 852.90 C 587.25 843.81 642.50 832.74 695.56 814.37 M 466.81 878.91 C 464.74 879.81 462.52 880.90 461.42 882.98 C 460.66 885.22 463.06 886.40 464.53 887.48 C 464.79 887.14 465.31 886.48 465.57 886.14 C 467.82 886.17 469.61 884.50 471.56 883.58 C 477.21 880.55 482.42 876.81 487.78 873.31 C 480.65 874.56 473.52 876.14 466.81 878.91 Z" />
<path fill="#ffffff" opacity="1.00" d=" M 351.67 810.60 C 368.78 802.79 387.02 796.37 406.00 795.75 C 416.26 795.56 427.59 797.29 435.15 804.88 C 441.17 810.83 442.68 820.01 440.97 828.07 C 438.39 840.82 430.78 851.88 422.38 861.54 C 415.39 869.38 407.65 876.57 399.21 882.84 C 413.62 876.09 427.88 868.41 439.78 857.73 C 445.23 853.22 447.09 846.01 452.00 841.07 C 454.17 838.76 456.75 836.85 459.60 835.47 C 469.73 830.54 482.05 833.39 491.66 827.03 C 484.36 840.65 472.99 851.69 460.22 860.22 C 438.63 874.77 413.99 884.08 389.08 891.20 C 385.18 892.47 382.12 895.37 378.57 897.33 C 374.68 900.09 369.93 901.73 366.85 905.53 C 370.18 906.17 373.58 906.32 376.96 906.52 C 367.38 909.90 357.25 912.61 347.01 912.09 C 342.31 911.89 336.19 909.55 336.00 904.05 C 336.41 895.13 345.61 888.81 354.03 888.71 C 364.35 888.65 374.87 891.26 385.00 888.13 C 388.87 887.64 391.08 884.16 393.82 881.82 C 401.67 873.82 409.39 864.95 412.60 853.98 C 414.64 847.31 413.62 839.45 408.69 834.28 C 402.40 827.50 392.88 825.19 384.02 824.19 C 363.83 822.41 343.69 827.93 325.48 836.32 C 305.52 845.44 283.94 851.43 261.94 852.25 C 243.85 852.95 225.31 850.06 209.04 841.86 C 196.27 835.45 185.15 825.36 178.52 812.61 C 203.88 811.12 228.62 817.97 253.00 823.96 C 272.17 828.58 292.33 832.69 311.93 828.18 C 326.36 825.29 338.39 816.38 351.67 810.60 M 349.94 900.18 C 350.07 900.55 350.34 901.29 350.47 901.65 C 354.75 904.70 360.38 904.64 365.36 905.73 C 366.08 904.74 366.85 903.80 367.66 902.91 C 370.12 902.26 371.79 900.14 373.90 898.84 C 375.92 897.16 378.54 895.99 379.88 893.66 C 369.97 896.16 359.89 897.92 349.94 900.18 Z" />
</g>
<g id="#007d3cff">
<path fill="#007d3c" opacity="1.00" d=" M 581.43 12.10 C 631.57 23.55 679.72 43.56 723.42 70.66 C 788.80 111.11 844.12 167.67 883.02 233.99 C 919.92 296.46 941.94 367.63 946.99 439.98 C 946.97 442.90 946.97 445.88 948.00 448.66 L 948.00 498.49 C 946.46 504.15 947.44 510.06 946.33 515.78 C 938.39 611.23 900.02 703.75 838.59 777.20 C 784.37 842.50 712.35 892.90 632.29 921.14 C 594.51 934.52 555.00 943.06 515.08 946.42 C 509.59 947.44 503.91 946.44 498.50 948.00 L 448.72 948.00 C 445.90 947.06 442.93 946.95 439.99 947.00 C 378.86 942.73 318.55 926.39 263.65 899.11 C 195.41 865.31 135.55 814.81 90.73 753.25 C 40.13 684.18 8.81 601.08 1.66 515.74 C 0.50 510.35 1.69 504.70 0.00 499.41 L 0.00 449.65 C 0.42 447.82 0.84 445.98 0.92 444.10 C 0.95 435.00 2.36 426.00 3.17 416.96 C 7.80 379.12 16.82 341.79 30.39 306.16 C 57.28 234.84 101.89 170.35 158.83 119.72 C 214.00 70.65 280.68 34.32 352.19 15.74 C 352.26 72.18 352.09 128.62 352.28 185.06 C 348.14 187.21 343.70 188.66 339.50 190.68 C 303.33 206.97 270.35 230.28 242.94 258.96 C 214.29 288.83 191.69 324.51 177.06 363.24 C 149.15 436.30 150.57 520.04 181.02 592.09 C 197.58 631.69 222.58 667.73 253.78 697.21 C 282.19 724.16 315.79 745.62 352.19 760.08 C 352.21 731.36 352.24 702.63 352.17 673.91 C 366.41 681.19 381.03 687.86 396.40 692.42 C 441.60 706.39 491.03 706.41 536.21 692.33 C 551.91 687.66 566.85 680.81 581.35 673.25 C 581.42 702.04 581.18 730.83 581.47 759.62 C 590.32 755.92 599.10 752.03 607.61 747.58 C 667.83 716.71 717.30 665.44 746.00 604.16 C 764.59 564.82 774.58 521.46 775.24 477.96 C 776.09 431.87 766.49 385.60 747.17 343.73 C 730.93 308.38 707.91 276.16 679.78 249.30 C 651.41 222.09 617.76 200.48 581.34 185.72 C 581.42 127.85 581.25 69.97 581.43 12.10 M 93.96 342.95 C 79.69 358.39 65.29 373.71 51.06 389.17 C 36.04 411.72 28.69 439.04 29.33 466.06 C 29.85 494.35 37.84 521.97 48.87 547.84 C 56.31 565.52 65.59 582.33 75.29 598.85 C 85.53 615.52 96.38 631.82 106.29 648.68 C 125.38 681.09 142.29 714.81 156.27 749.73 C 157.00 751.37 157.41 753.24 158.66 754.61 C 166.01 739.53 172.29 723.67 174.23 706.89 C 177.27 683.61 173.14 660.01 166.12 637.81 C 161.84 624.65 156.83 611.69 150.73 599.26 C 127.85 558.71 112.69 514.04 104.52 468.26 C 98.01 473.92 95.17 482.58 94.23 490.91 C 92.76 505.04 95.08 519.24 98.11 533.01 C 102.84 554.82 110.58 575.80 117.94 596.81 C 91.50 573.18 72.21 541.57 64.01 507.01 C 58.48 484.17 57.59 460.00 62.96 437.04 C 66.65 421.97 73.20 407.28 83.66 395.67 C 89.67 390.42 95.11 384.16 97.70 376.48 C 101.88 364.70 99.98 351.94 97.55 340.00 C 95.92 340.31 95.06 341.87 93.96 342.95 M 850.46 339.97 C 848.33 350.46 846.59 361.42 849.00 372.03 C 850.95 381.24 856.72 389.15 863.81 395.15 C 876.54 408.91 883.58 427.09 886.71 445.36 C 890.65 469.07 888.35 493.60 881.41 516.54 C 872.20 547.41 854.01 575.33 830.07 596.81 C 835.62 580.59 841.74 564.52 846.16 547.93 C 850.66 531.32 854.51 514.27 854.21 496.96 C 853.94 486.63 851.48 475.46 843.56 468.20 C 835.76 510.80 822.34 552.55 801.85 590.78 C 799.20 595.85 796.18 600.75 794.04 606.09 C 786.43 623.28 780.00 641.08 776.16 659.52 C 772.35 677.74 771.40 696.74 775.10 715.06 C 777.73 728.83 783.11 741.89 789.33 754.39 C 791.69 751.31 792.42 747.29 794.13 743.83 C 811.98 700.46 834.24 658.96 859.71 619.60 C 875.23 595.42 889.90 570.52 900.80 543.87 C 912.60 515.17 920.50 484.14 918.34 452.91 C 916.89 431.70 910.35 410.85 899.23 392.73 C 897.40 389.08 894.31 386.37 891.62 383.39 C 878.64 369.40 865.60 355.46 852.65 341.43 C 852.07 340.70 851.34 340.21 850.46 339.97 M 118.54 345.00 C 116.99 352.90 114.64 360.67 111.04 367.89 C 105.98 378.09 98.82 387.03 91.91 396.02 C 79.64 415.11 69.17 436.20 66.92 459.09 C 64.89 478.26 69.96 497.33 76.76 515.08 C 76.14 500.63 76.80 486.04 80.08 471.91 C 85.25 448.48 97.12 426.83 112.91 408.87 C 118.69 401.88 122.58 393.35 124.34 384.47 C 126.87 371.13 123.91 357.27 118.54 345.00 M 823.37 365.86 C 820.74 381.95 825.93 399.05 836.96 411.04 C 849.34 425.70 859.22 442.61 864.96 460.97 C 870.56 478.38 872.11 496.84 871.25 515.04 C 874.04 508.54 875.82 501.64 877.79 494.85 C 882.61 477.65 882.80 459.14 877.87 441.95 C 873.24 425.29 865.08 409.84 855.66 395.43 C 849.19 387.13 842.65 378.79 837.75 369.43 C 833.72 361.81 831.13 353.49 829.47 345.06 C 826.33 351.59 824.58 358.73 823.37 365.86 M 379.35 724.04 C 382.51 725.68 385.65 727.39 388.86 728.97 C 390.46 723.97 395.29 719.17 400.95 720.90 C 405.62 721.60 406.99 727.81 404.12 731.14 C 398.08 738.14 389.11 742.00 383.59 749.53 C 381.14 752.78 379.89 756.81 379.81 760.87 C 392.78 760.80 405.74 760.94 418.71 760.80 C 418.67 757.96 418.66 755.12 418.68 752.29 C 410.50 752.27 402.33 752.30 394.16 752.28 C 399.86 745.81 407.86 741.95 414.12 736.10 C 417.10 733.30 418.87 729.07 418.04 724.98 C 417.33 720.25 413.52 716.58 409.27 714.78 C 398.85 710.53 384.79 713.50 379.35 724.04 M 443.41 713.55 C 436.60 714.98 432.02 721.32 430.86 727.91 C 429.37 736.01 429.36 744.79 432.70 752.47 C 435.14 758.02 440.89 761.62 446.89 761.90 C 453.01 762.53 459.94 760.95 463.82 755.81 C 468.08 750.19 468.75 742.80 468.65 735.99 C 468.48 729.47 467.28 722.33 462.48 717.54 C 457.52 712.71 449.86 712.10 443.41 713.55 M 533.30 718.27 C 527.21 724.05 528.05 735.28 534.94 740.10 C 540.95 744.52 549.14 743.91 555.82 741.45 C 552.92 747.32 548.91 752.62 544.28 757.23 C 542.87 758.66 541.01 759.68 539.98 761.46 C 545.03 761.36 550.08 761.50 555.13 761.36 C 561.31 754.23 566.67 745.93 568.25 736.48 C 569.15 730.85 568.80 724.55 565.22 719.86 C 561.92 715.44 556.41 713.24 551.03 712.94 C 544.78 712.49 537.90 713.71 533.30 718.27 M 482.21 714.12 C 482.27 716.64 482.28 719.18 482.28 721.72 C 486.34 721.71 490.40 721.71 494.46 721.72 C 494.49 732.20 494.50 742.68 494.45 753.16 C 490.67 753.16 486.89 753.15 483.12 753.16 C 483.11 755.72 483.11 758.29 483.13 760.86 C 494.74 760.87 506.35 760.81 517.96 760.89 C 518.01 758.30 518.01 755.71 517.97 753.13 C 514.19 753.17 510.42 753.16 506.65 753.15 C 506.67 740.15 506.55 727.15 506.71 714.15 C 498.55 713.93 490.38 714.00 482.21 714.12 M 695.56 814.37 C 642.50 832.74 587.25 843.81 531.95 852.90 C 544.60 841.62 554.31 826.65 557.55 809.86 C 555.35 802.83 550.51 796.41 543.82 793.14 C 538.31 790.41 532.03 789.78 525.97 789.98 C 512.92 790.59 500.52 795.05 488.11 798.70 C 492.79 798.31 497.34 796.93 502.06 796.90 C 508.81 796.54 516.11 798.02 521.08 802.90 C 526.48 808.12 527.71 816.45 525.64 823.46 C 522.15 835.86 514.68 846.74 506.22 856.28 C 505.03 858.02 502.82 857.98 500.97 858.39 C 491.22 860.04 481.56 862.15 471.93 864.40 C 464.53 866.36 457.03 868.44 450.32 872.23 C 447.08 874.16 443.79 876.67 442.46 880.33 C 440.97 885.16 442.81 891.13 447.45 893.55 C 454.02 897.13 461.78 897.21 469.08 897.46 C 481.33 897.40 493.65 896.55 505.74 894.66 C 492.09 894.11 478.14 892.81 465.26 887.98 C 467.06 886.52 469.39 886.09 471.53 885.33 C 481.14 881.96 490.62 878.21 499.77 873.73 C 502.70 872.33 505.54 870.43 508.85 870.11 C 519.53 868.93 530.21 867.81 540.93 867.11 C 544.95 866.90 549.02 866.01 553.01 866.99 C 577.10 871.35 601.48 874.51 625.99 874.81 C 653.34 875.11 681.64 871.34 705.84 857.83 C 726.56 846.38 742.41 828.22 756.51 809.58 C 764.86 798.39 773.40 787.34 781.93 776.31 C 754.33 791.50 725.33 804.08 695.56 814.37 M 351.67 810.60 C 338.39 816.38 326.36 825.29 311.93 828.18 C 292.33 832.69 272.17 828.58 253.00 823.96 C 228.62 817.97 203.88 811.12 178.52 812.61 C 185.15 825.36 196.27 835.45 209.04 841.86 C 225.31 850.06 243.85 852.95 261.94 852.25 C 283.94 851.43 305.52 845.44 325.48 836.32 C 343.69 827.93 363.83 822.41 384.02 824.19 C 392.88 825.19 402.40 827.50 408.69 834.28 C 413.62 839.45 414.64 847.31 412.60 853.98 C 409.39 864.95 401.67 873.82 393.82 881.82 C 391.08 884.16 388.87 887.64 385.00 888.13 C 374.87 891.26 364.35 888.65 354.03 888.71 C 345.61 888.81 336.41 895.13 336.00 904.05 C 336.19 909.55 342.31 911.89 347.01 912.09 C 357.25 912.61 367.38 909.90 376.96 906.52 C 373.58 906.32 370.18 906.17 366.85 905.53 C 369.93 901.73 374.68 900.09 378.57 897.33 C 382.12 895.37 385.18 892.47 389.08 891.20 C 413.99 884.08 438.63 874.77 460.22 860.22 C 472.99 851.69 484.36 840.65 491.66 827.03 C 482.05 833.39 469.73 830.54 459.60 835.47 C 456.75 836.85 454.17 838.76 452.00 841.07 C 447.09 846.01 445.23 853.22 439.78 857.73 C 427.88 868.41 413.62 876.09 399.21 882.84 C 407.65 876.57 415.39 869.38 422.38 861.54 C 430.78 851.88 438.39 840.82 440.97 828.07 C 442.68 820.01 441.17 810.83 435.15 804.88 C 427.59 797.29 416.26 795.56 406.00 795.75 C 387.02 796.37 368.78 802.79 351.67 810.60 Z" />
<path fill="#007d3c" opacity="1.00" d=" M 353.93 269.01 C 399.29 242.85 453.93 233.53 505.45 242.68 C 545.18 249.51 582.89 267.40 613.47 293.65 C 641.92 317.94 664.28 349.37 677.70 384.30 C 694.30 426.96 697.32 474.72 686.58 519.20 C 682.10 538.00 675.06 556.17 665.98 573.23 C 662.62 573.03 659.25 573.07 655.90 572.96 C 654.50 573.19 653.69 571.91 652.86 571.07 C 647.78 565.16 643.23 558.79 637.90 553.12 C 633.29 548.79 626.47 551.01 621.52 553.50 C 612.47 557.80 612.75 570.25 604.35 575.33 C 596.25 579.88 586.35 573.89 578.14 578.09 C 571.38 582.24 573.51 591.91 568.17 597.10 C 567.25 591.13 567.58 585.07 567.24 579.06 C 566.42 558.73 566.55 538.36 565.70 518.04 C 565.67 513.37 566.23 508.57 564.89 504.03 C 564.45 501.36 560.19 500.79 559.16 503.32 C 557.63 506.31 557.84 509.80 557.52 513.06 C 555.95 534.54 554.82 556.06 553.39 577.55 C 551.80 579.89 549.00 577.15 547.13 576.55 C 542.90 573.87 537.78 574.70 533.07 574.20 C 530.40 573.53 530.08 570.34 528.60 568.46 C 526.76 566.10 524.13 563.61 520.90 563.95 C 516.28 565.11 514.78 570.52 510.90 572.72 C 503.73 574.25 496.30 573.68 489.01 573.96 C 484.66 574.09 479.78 573.78 476.58 570.43 C 471.45 565.11 468.48 557.95 462.69 553.21 C 457.02 548.54 447.89 549.74 443.14 555.21 C 437.19 561.70 434.97 571.23 427.32 576.26 C 422.80 579.64 417.06 577.31 411.99 577.11 C 407.91 577.03 402.87 576.55 399.93 579.99 C 396.45 584.78 396.67 591.24 393.33 596.11 C 391.95 568.09 392.60 540.02 391.53 511.99 C 391.33 508.91 391.67 505.61 390.28 502.76 C 389.10 500.49 385.26 501.07 384.64 503.52 C 383.65 506.91 383.95 510.51 383.59 514.00 C 382.60 535.11 379.81 556.07 377.99 577.11 C 374.51 578.61 371.72 575.35 368.54 574.56 C 365.39 573.93 362.17 574.77 359.00 574.38 C 354.81 571.77 353.05 566.66 349.22 563.67 C 343.69 561.75 338.99 566.89 336.13 571.00 C 331.97 577.98 327.91 585.06 324.43 592.42 C 323.47 594.11 322.63 596.02 320.97 597.18 C 319.07 597.45 318.57 595.23 318.06 593.91 C 316.08 586.77 315.83 579.29 315.62 571.94 C 315.48 545.17 319.28 518.62 322.34 492.09 C 324.62 471.76 327.73 451.38 326.91 430.87 C 326.35 424.89 325.93 418.09 321.53 413.53 C 317.95 410.07 311.99 411.51 309.29 415.33 C 303.37 423.12 301.03 432.89 298.58 442.19 C 294.96 457.46 291.85 472.86 288.58 488.22 C 285.89 499.48 283.25 511.37 275.73 520.54 C 272.44 525.27 267.03 527.67 261.93 529.90 C 259.09 530.98 256.03 532.12 252.95 531.49 C 251.29 530.75 249.75 532.14 249.50 533.70 C 249.41 532.83 249.26 531.96 249.08 531.12 C 234.32 482.51 236.70 428.88 255.69 381.75 C 274.46 334.52 309.74 294.10 353.93 269.01 M 312.40 354.51 C 302.96 356.87 295.99 366.28 296.53 376.01 C 296.73 384.31 302.27 392.16 310.04 395.11 C 317.84 398.32 327.44 396.29 333.26 390.17 C 338.93 384.49 340.87 375.49 338.08 367.96 C 334.66 357.73 322.77 351.48 312.40 354.51 M 382.83 366.77 C 369.69 377.20 362.50 393.49 360.55 409.87 C 358.59 426.69 359.53 444.50 367.09 459.94 C 374.86 475.91 390.31 488.03 407.89 491.11 C 423.52 493.79 440.72 492.17 454.16 483.17 C 465.83 475.38 472.83 462.32 476.31 449.03 C 467.57 446.33 458.89 443.45 450.13 440.81 C 447.94 449.43 444.50 458.56 436.96 463.88 C 424.43 473.15 404.77 469.90 395.76 457.20 C 388.18 446.51 387.58 432.73 387.56 420.08 C 387.87 409.10 389.24 397.25 396.22 388.29 C 405.19 376.63 422.81 373.60 435.59 380.45 C 442.66 384.31 447.50 391.49 449.16 399.30 C 458.14 397.31 467.07 395.07 476.02 392.93 C 473.61 385.02 470.25 377.25 464.83 370.91 C 456.46 361.61 444.53 355.90 432.17 354.40 C 415.02 352.18 396.40 355.50 382.83 366.77 M 500.15 356.05 C 500.25 380.03 500.15 404.01 500.21 427.99 C 500.36 439.36 500.47 450.87 503.02 462.01 C 505.97 473.70 515.10 483.20 526.10 487.82 C 537.71 492.54 550.60 492.53 562.93 492.01 C 576.46 491.34 590.70 486.10 598.76 474.70 C 606.51 463.79 606.34 449.80 606.90 437.00 C 607.19 410.00 606.97 383.00 607.03 356.00 C 598.02 356.00 589.01 356.00 580.00 356.00 C 579.87 384.32 580.25 412.65 579.77 440.97 C 579.42 448.01 579.67 456.00 574.68 461.63 C 569.97 467.44 562.12 469.15 554.98 469.15 C 547.05 469.36 538.41 467.28 533.12 460.95 C 528.49 455.82 527.52 448.68 527.49 442.04 C 526.97 413.36 527.38 384.68 527.23 356.00 C 518.21 356.03 509.18 355.94 500.15 356.05 Z" />
<path fill="#007d3c" opacity="1.00" d=" M 307.56 445.01 C 305.51 460.91 305.59 477.01 304.97 493.01 C 304.62 525.70 304.07 558.58 308.41 591.06 C 309.35 596.70 310.17 602.63 313.17 607.62 C 315.36 611.32 320.81 610.06 322.84 606.84 C 329.83 597.53 332.35 585.87 337.50 575.60 C 339.57 571.62 342.64 567.87 347.09 566.51 C 350.96 569.53 352.44 574.84 356.86 577.26 C 360.79 579.05 365.41 576.71 369.29 578.79 C 372.19 580.08 375.48 582.01 378.72 580.68 C 381.72 579.43 381.64 575.65 382.05 572.95 C 383.32 556.59 385.77 540.33 386.38 523.93 C 387.16 518.00 387.14 512.02 387.48 506.07 C 389.37 537.34 387.83 568.75 389.99 599.99 C 390.09 601.99 392.88 602.64 393.94 601.01 C 399.62 596.08 398.92 587.70 402.94 581.85 C 409.68 578.95 416.96 582.16 423.93 581.32 C 428.76 580.70 432.43 577.10 435.30 573.44 C 439.40 568.59 441.53 562.41 445.71 557.63 C 449.23 553.64 455.83 552.50 460.19 555.77 C 464.20 558.86 466.67 563.40 469.57 567.45 C 472.75 572.10 477.03 576.92 483.08 577.21 C 491.73 577.97 500.43 577.03 509.09 576.83 C 514.91 576.80 517.02 570.57 521.06 567.57 C 526.85 567.71 526.44 576.69 531.99 577.63 C 535.31 578.23 538.74 577.65 542.07 578.31 C 545.83 579.32 549.04 582.72 553.19 581.88 C 556.14 581.22 556.98 577.96 557.18 575.35 C 558.67 552.54 559.78 529.70 561.54 506.90 C 563.18 524.22 562.20 541.69 563.24 559.05 C 563.43 571.05 563.91 583.05 564.28 595.05 C 564.50 597.17 564.50 600.27 566.96 601.11 C 570.31 601.46 572.23 597.99 573.55 595.45 C 575.76 591.57 575.92 586.90 578.12 583.05 C 580.14 579.64 584.58 579.78 588.03 580.10 C 594.14 580.37 600.98 581.94 606.44 578.28 C 612.26 574.54 614.65 567.73 617.85 561.95 C 620.36 557.14 625.84 554.82 630.99 554.25 C 633.63 553.87 635.70 555.86 637.29 557.68 C 642.10 563.24 646.65 569.03 651.36 574.68 C 653.72 577.54 657.78 576.36 661.00 576.76 C 662.52 577.07 663.81 576.59 664.79 575.40 C 648.22 605.25 624.96 631.39 597.03 651.06 C 560.73 676.93 516.59 691.60 472.02 692.55 C 427.05 693.86 381.78 681.30 343.99 656.88 C 301.59 629.84 268.61 588.29 252.17 540.75 C 251.61 538.85 249.98 537.38 250.07 535.29 C 250.74 536.15 251.40 537.05 252.38 537.60 C 262.78 537.38 273.18 533.03 279.90 524.95 C 292.09 510.67 297.49 492.09 301.72 474.17 C 304.25 464.57 305.19 454.64 307.56 445.01 Z" />
<path fill="#007d3c" opacity="1.00" d=" M 546.47 720.55 C 548.97 719.92 551.93 720.24 553.87 722.08 C 558.54 726.45 556.16 736.59 549.00 736.31 C 540.27 737.19 538.45 722.68 546.47 720.55 Z" />
<path fill="#007d3c" opacity="1.00" d=" M 446.38 721.34 C 449.07 720.01 452.97 720.69 454.38 723.55 C 456.02 726.79 455.77 730.53 455.98 734.05 C 455.97 739.08 456.24 744.19 455.22 749.15 C 454.71 752.06 452.10 754.52 449.03 754.17 C 445.62 754.33 443.38 751.10 443.04 748.04 C 442.22 741.75 442.34 735.36 442.76 729.04 C 442.98 726.21 443.62 722.79 446.38 721.34 Z" />
<path fill="#007d3c" opacity="1.00" d=" M 466.81 878.91 C 473.52 876.14 480.65 874.56 487.78 873.31 C 482.42 876.81 477.21 880.55 471.56 883.58 C 469.61 884.50 467.82 886.17 465.57 886.14 C 465.31 886.48 464.79 887.14 464.53 887.48 C 463.06 886.40 460.66 885.22 461.42 882.98 C 462.52 880.90 464.74 879.81 466.81 878.91 Z" />
<path fill="#007d3c" opacity="1.00" d=" M 349.94 900.18 C 359.89 897.92 369.97 896.16 379.88 893.66 C 378.54 895.99 375.92 897.16 373.90 898.84 C 371.79 900.14 370.12 902.26 367.66 902.91 C 366.85 903.80 366.08 904.74 365.36 905.73 C 360.38 904.64 354.75 904.70 350.47 901.65 C 350.34 901.29 350.07 900.55 349.94 900.18 Z" />
</g>
<g id="#da251dff">
<path fill="#da251d" opacity="1.00" d=" M 515.19 65.29 C 522.01 63.53 529.65 65.32 534.91 70.04 C 540.25 74.65 543.06 81.98 542.16 88.99 C 541.43 95.75 537.27 101.99 531.35 105.32 C 524.59 109.29 515.68 109.12 509.06 104.94 C 502.04 100.71 497.89 92.25 498.87 84.10 C 499.67 75.23 506.52 67.34 515.19 65.29 Z" />
<path fill="#da251d" opacity="1.00" d=" M 393.21 99.28 C 402.18 96.04 412.86 102.43 414.33 111.82 C 416.42 121.20 408.57 131.03 398.98 131.20 C 390.40 131.73 382.36 124.56 381.93 115.98 C 381.32 108.69 386.22 101.42 393.21 99.28 Z" />
<path fill="#da251d" opacity="1.00" d=" M 492.40 125.48 C 507.53 118.51 524.32 113.66 541.11 115.69 C 549.54 116.82 558.75 120.19 563.18 127.96 C 566.07 132.82 564.78 138.60 564.22 143.88 C 562.70 150.56 559.06 156.52 555.14 162.06 C 546.04 174.47 534.71 185.06 522.83 194.77 C 501.54 211.77 478.00 226.14 452.78 236.49 C 465.29 219.30 481.13 204.79 494.19 188.01 C 498.85 182.15 503.43 176.01 506.04 168.93 C 506.63 164.67 506.43 159.83 503.88 156.20 C 501.29 152.84 496.53 153.19 492.87 154.15 C 480.56 157.42 470.28 165.53 458.33 169.70 C 458.83 157.26 466.40 146.45 474.85 137.86 C 480.03 132.90 485.73 128.27 492.40 125.48 Z" />
<path fill="#da251d" opacity="1.00" d=" M 371.02 146.02 C 376.03 139.11 384.94 136.53 393.11 136.34 C 404.75 136.13 416.17 139.51 426.73 144.17 C 436.29 149.18 446.01 157.63 446.37 169.24 C 437.87 167.50 429.09 164.40 420.39 166.52 C 415.80 167.52 412.70 173.35 415.44 177.43 C 424.93 195.26 439.86 209.39 454.75 222.72 C 433.24 218.25 413.64 207.55 395.41 195.64 C 385.02 188.99 374.91 180.68 369.86 169.12 C 366.56 161.86 366.12 152.68 371.02 146.02 Z" />
</g>
</svg>
